<?xml version="1.0" standalone="no"?>
<!DOCTYPE svg PUBLIC "-//W3C//DTD SVG 20010904//EN"
 "http://www.w3.org/TR/2001/REC-SVG-20010904/DTD/svg10.dtd">
<svg version="1.0" xmlns="http://www.w3.org/2000/svg"
 width="500.000000pt" height="500.000000pt" viewBox="0 0 500.000000 500.000000"
 preserveAspectRatio="xMidYMid meet">

<g transform="translate(0.000000,500.000000) scale(0.100000,-0.100000)"
fill="#f55d3e" stroke="none"> <!-- Use tomato color here -->
<path d="M0 2500 l0 -2500 2500 0 2500 0 0 2500 0 2500 -2500 0 -2500 0 0
-2500z m2471 423 c53 -27 102 -65 174 -135 l100 -97 -65 32 c-55 28 -75 32
-140 32 -100 -1 -147 -25 -319 -160 -73 -58 -159 -121 -191 -139 -63 -37 -173
-80 -188 -75 -8 3 196 521 211 535 8 8 236 42 288 43 47 1 70 -6 130 -36z
m-701 -743 c11 -11 20 -29 20 -40 0 -26 -34 -60 -62 -60 -50 0 -76 63 -41 102
21 24 58 23 83 -2z m-212 -72 l3 -37 -88 -3 -88 -3 -3 -42 -3 -43 65 0 66 0 0
-40 0 -39 -62 -3 -63 -3 -3 -87 -3 -88 -49 0 -50 0 0 215 0 216 138 -3 137 -3
3 -37z m222 -218 l0 -170 -50 0 -50 0 0 170 0 170 50 0 50 0 0 -170z m338 150
c32 -20 32 -20 32 0 0 17 7 20 50 20 l50 0 0 -183 c0 -199 -6 -237 -46 -278
-62 -64 -204 -61 -263 7 -17 19 -31 44 -31 54 0 17 7 20 46 20 31 0 54 -7 71
-20 53 -41 110 -14 120 58 3 23 3 42 -1 42 -4 0 -20 -10 -36 -21 -23 -18 -38
-21 -81 -17 -44 5 -58 11 -85 41 -57 62 -67 154 -23 225 41 68 131 92 197 52z"/>
<path d="M2022 1947 c-29 -30 -30 -89 -2 -117 27 -27 81 -26 106 1 28 31 25
96 -5 120 -32 26 -73 24 -99 -4z"/>
</g>
</svg>
